<?xml version="1.0" standalone="no"?>
<!DOCTYPE svg PUBLIC "-//W3C//DTD SVG 20010904//EN"
 "http://www.w3.org/TR/2001/REC-SVG-20010904/DTD/svg10.dtd">
<svg version="1.0" xmlns="http://www.w3.org/2000/svg"
 width="396.000000pt" height="360.000000pt" viewBox="0 0 396.000000 360.000000"
 preserveAspectRatio="xMidYMid meet">

<g transform="translate(0.000000,360.000000) scale(0.100000,-0.100000)"
fill="#000000" stroke="none">
<path d="M1195 3021 l-770 -258 -3 -781 -2 -782 777 -518 c428 -285 786 -521
796 -525 13 -5 225 132 770 494 413 276 762 511 775 522 l22 20 0 762 c0 566
-3 767 -12 786 -11 23 -90 51 -783 282 -424 141 -778 257 -786 256 -8 0 -360
-116 -784 -258z m152 -676 c42 -29 38 -102 -8 -151 -19 -21 -19 -21 31 -84 27
-34 50 -64 50 -66 0 -2 -24 -4 -52 -4 -52 0 -54 1 -98 57 -62 78 -70 78 -70 4
l0 -61 -40 0 -40 0 0 153 c0 85 3 157 7 160 3 4 50 7 102 7 70 0 103 -4 118
-15z m273 -5 c0 -15 -7 -20 -25 -20 l-25 0 0 -105 c0 -103 1 -106 25 -117 16
-7 25 -19 25 -35 0 -22 -2 -23 -95 -23 -52 0 -95 2 -95 4 0 2 16 20 35 39 33
33 35 39 35 103 0 74 -17 134 -37 134 -14 0 -18 22 -6 33 3 4 42 7 85 7 71 0
78 -2 78 -20z m295 -5 c29 -28 33 -80 10 -125 -19 -38 -48 -53 -110 -60 l-50
-5 -3 -52 -3 -53 -35 0 -34 0 0 153 c0 85 3 157 7 160 3 4 49 7 100 7 86 0 96
-2 118 -25z m290 19 c27 -11 47 -62 40 -104 -9 -56 -53 -93 -118 -100 l-52 -5
-3 -52 -3 -53 -35 0 -34 0 0 153 c0 85 3 157 7 160 8 9 176 9 198 1z m315 -14
c0 -18 -7 -20 -70 -20 -70 0 -70 0 -70 -28 0 -23 6 -30 33 -40 18 -7 48 -12
65 -12 25 0 32 -4 32 -20 0 -18 -7 -20 -65 -20 l-65 0 0 -48 c0 -45 2 -49 33
-60 18 -7 50 -12 70 -12 31 0 37 -4 37 -20 0 -20 -5 -21 -107 -18 l-108 3 -3
138 c-1 83 2 145 8 157 10 18 21 20 110 20 93 0 100 -1 100 -20z m294 6 c47
-20 69 -72 64 -150 -7 -115 -60 -156 -202 -156 l-86 0 0 144 c0 79 3 151 6
160 5 13 23 16 95 16 54 0 103 -6 123 -14z m-204 -631 c0 -13 -75 -15 -615
-15 -338 0 -615 4 -615 8 0 5 3 12 7 15 3 4 280 7 615 7 534 0 608 -2 608 -15z
m-300 -649 c0 -2 -9 -6 -20 -9 -11 -3 -18 -1 -14 4 5 9 34 13 34 5z"/>
<path d="M1764 2306 c-3 -8 -4 -31 -2 -52 3 -34 7 -40 35 -48 39 -11 63 5 63
41 0 47 -81 98 -96 59z"/>
<path d="M2670 2210 l0 -109 35 -7 c47 -8 81 15 96 64 16 55 -15 126 -65 147
-66 28 -66 27 -66 -95z"/>
</g>
</svg>
